<svg width="1920" height="1080" viewBox="0 0 1920 1080" fill="none" xmlns="http://www.w3.org/2000/svg">
<g clip-path="url(#clip0_166_47)">
<rect width="1920" height="1080" fill="white"/>
<path d="M1918 706.522C1916.95 703.127 1911.54 701.991 1895.5 701.023C1873.65 699.529 1858.65 699.796 1830 701.023C1795.52 702.564 1778.38 706.474 1751 718.023C1721 729.842 1704.38 737.566 1677 764.523C1641.28 798.451 1620.57 819.373 1576.5 876.523C1536.45 927.018 1509.66 951.892 1451.5 988.023C1406.28 1011.92 1378.14 1025.03 1295 1045.02C1257.61 1050.07 1240.11 1057.76 1215 1080.02H1919.5V709.021" stroke="#FF008F"/>
<path d="M292.567 541.604C354.687 274.814 496.462 211.125 496.462 211.125C638.737 133.395 545.557 39.1158 510.99 0H0V680.014C150.295 691.747 247.98 673.494 292.567 541.604Z" fill="#116EE7" stroke="#0A89F1"/>
<path d="M1213 1080C1235.42 1057.29 1255.35 1050.16 1299 1045C1357.66 1030.98 1388.69 1019.24 1442 993.999C1504.05 954.391 1534.02 927.846 1579 872.999C1621.09 818.307 1646.94 792.026 1695 748.999C1740 713 1752.25 716.362 1782 704.999C1822.5 698.999 1838.38 697.085 1869 698.999C1893.33 700.517 1916.08 701.589 1924 704.999L1921 713V1080H1665H1213Z" fill="#FF0091" stroke="#FF008F"/>
</g>
<defs>
<clipPath id="clip0_166_47">
<rect width="1920" height="1080" fill="white"/>
</clipPath>
</defs>
</svg>
